<svg width="22" height="22" viewBox="0 0 22 22" fill="none" xmlns="http://www.w3.org/2000/svg">
<path d="M21.167 9.5966C21.4994 9.92903 21.6657 10.3113 21.6657 10.7435C21.6657 11.1756 21.4994 11.5579 21.167 11.8903C20.8013 12.256 20.3027 12.7547 19.6711 13.3863C19.0727 13.9846 18.1253 14.932 16.8288 16.2285C15.5324 17.525 14.452 18.6054 13.5877 19.4697C12.7234 20.334 12.2912 20.7661 12.2912 20.7661C11.9588 21.0986 11.5765 21.2648 11.1443 21.2648C10.7122 21.2648 10.3299 21.0986 9.99748 20.7661L1.12169 11.8903C0.78926 11.5579 0.623047 11.1756 0.623047 10.7435C0.623047 10.3113 0.78926 9.92903 1.12169 9.5966L7.40455 3.31374L9.0002 4.90938C8.83398 5.24181 8.75088 5.59086 8.75088 5.95653C8.75088 6.48841 8.90047 6.95381 9.19965 7.35272C9.49884 7.75163 9.88113 8.03419 10.3465 8.20041C10.3465 11.5912 10.3465 13.2865 10.3465 13.2865C9.88113 13.4527 9.49884 13.7519 9.19965 14.1841C8.90047 14.583 8.75088 15.0318 8.75088 15.5304C8.75088 16.1953 8.98358 16.7604 9.44897 17.2258C9.91437 17.6912 10.4795 17.9239 11.1443 17.9239C11.8092 17.9239 12.3743 17.6912 12.8397 17.2258C13.3051 16.7604 13.5378 16.1953 13.5378 15.5304C13.5378 15.0318 13.3882 14.583 13.089 14.1841C12.7899 13.7519 12.4076 13.4527 11.9422 13.2865C11.9422 13.0538 11.9422 12.7713 11.9422 12.4388C11.9422 12.0732 11.9422 11.5247 11.9422 10.7933C11.9422 10.062 11.9422 9.44701 11.9422 8.94837C11.9422 8.44973 11.9422 8.20041 11.9422 8.20041C12.0087 8.16716 12.0918 8.13392 12.1915 8.10068C12.258 8.16716 12.3411 8.26689 12.4408 8.39986C12.5405 8.49959 12.7068 8.6658 12.9395 8.8985C13.2054 9.1312 13.4049 9.33066 13.5378 9.49687C13.704 9.66308 13.7871 9.74619 13.7871 9.74619C13.6209 10.0786 13.5378 10.411 13.5378 10.7435C13.5378 11.4083 13.7705 11.9734 14.2359 12.4388C14.7013 12.9042 15.2664 13.1369 15.9313 13.1369C16.5961 13.1369 17.1613 12.9042 17.6267 12.4388C18.0921 11.9734 18.3248 11.4083 18.3248 10.7435C18.3248 10.0786 18.0921 9.51349 17.6267 9.04809C17.1613 8.5827 16.5961 8.35 15.9313 8.35C15.5656 8.35 15.2332 8.43311 14.934 8.59932C14.934 8.59932 14.3855 8.06744 13.2885 7.00367C13.4547 6.67124 13.5378 6.3222 13.5378 5.95653C13.5378 5.29167 13.3051 4.72655 12.8397 4.26115C12.3743 3.79575 11.8092 3.56306 11.1443 3.56306C10.7787 3.56306 10.4296 3.64616 10.0972 3.81238L8.50156 2.21673C8.56804 2.15024 8.65115 2.06714 8.75088 1.96741C8.85061 1.86768 9.01682 1.70147 9.24952 1.46877C9.48222 1.23607 9.66505 1.05323 9.79802 0.920264C9.93099 0.787293 9.99748 0.720808 9.99748 0.720808C10.3299 0.388381 10.7122 0.222168 11.1443 0.222168C11.5765 0.222168 11.9588 0.388381 12.2912 0.720808L21.167 9.5966Z" fill="#FC9867"/>
</svg>
