<?xml version="1.0" encoding="UTF-8"?>
<svg xmlns="http://www.w3.org/2000/svg" xmlns:xlink="http://www.w3.org/1999/xlink" width="20px" height="20px" viewBox="0 0 20 20" version="1.1">
<defs>
<filter id="alpha" filterUnits="objectBoundingBox" x="0%" y="0%" width="100%" height="100%">
  <feColorMatrix type="matrix" in="SourceGraphic" values="0 0 0 0 1 0 0 0 0 1 0 0 0 0 1 0 0 0 1 0"/>
</filter>
<mask id="mask0">
  <g filter="url(#alpha)">
<rect x="0" y="0" width="20" height="20" style="fill:rgb(0%,0%,0%);fill-opacity:0.501961;stroke:none;"/>
  </g>
</mask>
<linearGradient id="linear0" gradientUnits="userSpaceOnUse" x1="-16.3" y1="16.071" x2="1354.901" y2="16.071" gradientTransform="matrix(1,0,0,-1,16.8,702.696)">
<stop offset="0.117" style="stop-color:rgb(100%,100%,100%);stop-opacity:0;"/>
<stop offset="0.252" style="stop-color:rgb(75.294118%,81.960784%,82.745098%);stop-opacity:0.152941;"/>
<stop offset="0.387" style="stop-color:rgb(56.862745%,70.196078%,71.764706%);stop-opacity:0.305882;"/>
<stop offset="0.52" style="stop-color:rgb(42.745098%,62.352941%,63.921569%);stop-opacity:0.458824;"/>
<stop offset="0.65" style="stop-color:rgb(30.196078%,56.862745%,58.431373%);stop-opacity:0.603922;"/>
<stop offset="0.776" style="stop-color:rgb(18.823529%,53.333333%,54.509804%);stop-opacity:0.745098;"/>
<stop offset="0.895" style="stop-color:rgb(7.843137%,51.372549%,52.54902%);stop-opacity:0.882353;"/>
<stop offset="1" style="stop-color:rgb(0%,50.588235%,51.764706%);stop-opacity:1;"/>
</linearGradient>
<linearGradient id="linear1" gradientUnits="userSpaceOnUse" x1="-16.8" y1="16.071" x2="1355.401" y2="16.071" gradientTransform="matrix(1,0,0,-1,16.8,702.696)">
<stop offset="0" style="stop-color:rgb(100%,100%,100%);stop-opacity:0;"/>
<stop offset="0.153" style="stop-color:rgb(75.294118%,81.960784%,82.745098%);stop-opacity:0.152941;"/>
<stop offset="0.306" style="stop-color:rgb(56.862745%,70.196078%,71.764706%);stop-opacity:0.305882;"/>
<stop offset="0.457" style="stop-color:rgb(42.745098%,62.352941%,63.921569%);stop-opacity:0.458824;"/>
<stop offset="0.604" style="stop-color:rgb(30.196078%,56.862745%,58.431373%);stop-opacity:0.603922;"/>
<stop offset="0.746" style="stop-color:rgb(18.823529%,53.333333%,54.509804%);stop-opacity:0.745098;"/>
<stop offset="0.881" style="stop-color:rgb(7.843137%,51.372549%,52.54902%);stop-opacity:0.882353;"/>
<stop offset="1" style="stop-color:rgb(0%,50.588235%,51.764706%);stop-opacity:1;"/>
</linearGradient>
<clipPath id="clip1">
  <rect x="0" y="0" width="20" height="20"/>
</clipPath>
<g id="surface5" clip-path="url(#clip1)">
<path style="fill-rule:nonzero;fill:url(#linear0);stroke-width:1;stroke-linecap:butt;stroke-linejoin:miter;stroke:url(#linear1);stroke-miterlimit:10;" d="M 1371.664984 686.610115 C 1371.664984 1065.188854 1064.795815 1372.18082 686.1005 1372.18082 C 307.405185 1372.18082 0.536016 1065.188854 0.536016 686.610115 C 0.536016 308.031377 307.405185 1.039411 686.1005 1.039411 C 1064.795815 1.039411 1371.664984 308.031377 1371.664984 686.610115 Z M 1371.664984 686.610115 " transform="matrix(0.0145751,0,0,0.0145693,0,0.000481515)"/>
</g>
</defs>
<g id="surface1">
<path style="fill-rule:nonzero;fill:rgb(0%,59.215686%,61.568627%);fill-opacity:1;stroke-width:0.932;stroke-linecap:butt;stroke-linejoin:miter;stroke:rgb(50.588235%,78.823529%,79.607843%);stroke-opacity:1;stroke-miterlimit:10;" d="M 1371.664984 686.073885 C 1371.664984 1064.652623 1064.795815 1371.644589 686.1005 1371.644589 C 307.405185 1371.644589 0.536016 1064.652623 0.536016 686.073885 C 0.536016 307.495146 307.405185 0.50318 686.1005 0.50318 C 1064.795815 0.50318 1371.664984 307.495146 1371.664984 686.073885 Z M 1371.664984 686.073885 " transform="matrix(0.0145751,0,0,0.0145693,0,0.000481515)"/>
<use xlink:href="#surface5" mask="url(#mask0)"/>
<path style=" stroke:none;fill-rule:nonzero;fill:rgb(100%,100%,100%);fill-opacity:1;" d="M 13.816406 13.566406 C 13.628906 13.566406 13.4375 13.554688 13.246094 13.527344 C 11.65625 13.300781 10.597656 12.160156 10 11.28125 C 9.402344 12.160156 8.34375 13.300781 6.753906 13.527344 C 6.566406 13.554688 6.375 13.566406 6.183594 13.566406 C 5.195312 13.566406 4.269531 13.199219 3.570312 12.53125 C 2.867188 11.859375 2.480469 10.957031 2.480469 9.996094 C 2.480469 9.03125 2.867188 8.128906 3.574219 7.457031 C 4.269531 6.789062 5.199219 6.421875 6.1875 6.421875 C 6.375 6.421875 6.566406 6.4375 6.753906 6.464844 C 8.34375 6.691406 9.402344 7.832031 10 8.707031 C 10.597656 7.832031 11.65625 6.691406 13.246094 6.464844 C 13.4375 6.4375 13.628906 6.421875 13.816406 6.421875 C 14.804688 6.421875 15.730469 6.789062 16.425781 7.457031 C 17.132812 8.128906 17.519531 9.03125 17.519531 9.996094 C 17.519531 10.957031 17.132812 11.859375 16.429688 12.53125 C 15.730469 13.199219 14.804688 13.566406 13.816406 13.566406 M 10.703125 9.996094 C 11.015625 10.585938 11.929688 12.058594 13.425781 12.273438 C 13.554688 12.292969 13.6875 12.300781 13.816406 12.300781 C 15.160156 12.300781 16.253906 11.265625 16.253906 9.996094 C 16.253906 8.722656 15.160156 7.6875 13.816406 7.6875 C 13.6875 7.6875 13.554688 7.699219 13.425781 7.714844 C 11.929688 7.929688 11.015625 9.402344 10.703125 9.996094 M 6.1875 7.6875 C 4.839844 7.6875 3.746094 8.722656 3.746094 9.996094 C 3.746094 11.265625 4.839844 12.300781 6.183594 12.300781 C 6.3125 12.300781 6.445312 12.292969 6.574219 12.273438 C 8.070312 12.058594 8.984375 10.585938 9.296875 9.996094 C 8.988281 9.40625 8.070312 7.929688 6.574219 7.71875 C 6.445312 7.699219 6.3125 7.6875 6.1875 7.6875 "/>
<path style=" stroke:none;fill-rule:nonzero;fill:rgb(100%,100%,100%);fill-opacity:1;" d="M 5.164062 9.644531 L 7.390625 9.644531 L 7.390625 10.363281 L 5.164062 10.363281 Z M 14.816406 9.644531 L 14.0625 9.644531 L 14.0625 8.890625 L 13.34375 8.890625 L 13.34375 9.644531 L 12.589844 9.644531 L 12.589844 10.363281 L 13.34375 10.363281 L 13.34375 11.117188 L 14.0625 11.117188 L 14.0625 10.363281 L 14.816406 10.363281 Z M 14.816406 9.644531 "/>
</g>
</svg>
