<svg width="22" height="22" viewBox="0 0 22 22" fill="none" xmlns="http://www.w3.org/2000/svg">
<path d="M21.6657 0.137695H0.623047V21.1803H21.6657V0.137695Z" fill="#F7DF1E"/>
<path d="M14.7568 16.5771C15.1807 17.2692 15.7322 17.7779 16.7075 17.7779C17.5268 17.7779 18.0502 17.3684 18.0502 16.8026C18.0502 16.1246 17.5124 15.8844 16.6106 15.4899L16.1163 15.2778C14.6894 14.6699 13.7415 13.9084 13.7415 12.2985C13.7415 10.8155 14.8714 9.68652 16.6373 9.68652C17.8945 9.68652 18.7984 10.1241 19.4497 11.2697L17.9099 12.2584C17.5709 11.6505 17.2051 11.411 16.6373 11.411C16.0581 11.411 15.6911 11.7784 15.6911 12.2584C15.6911 12.8516 16.0585 13.0918 16.9069 13.4592L17.4012 13.6709C19.0813 14.3914 20.0299 15.1259 20.0299 16.7772C20.0299 18.5575 18.6314 19.5328 16.7532 19.5328C14.9168 19.5328 13.7304 18.6577 13.1499 17.5107L14.7568 16.5771ZM7.7717 16.7485C8.08233 17.2996 8.3649 17.7655 9.04428 17.7655C9.69393 17.7655 10.1038 17.5114 10.1038 16.523V9.79942H12.0811V16.5498C12.0811 18.5972 10.8807 19.5291 9.12845 19.5291C7.54524 19.5291 6.62839 18.7098 6.16211 17.723L7.7717 16.7485Z" fill="black"/>
</svg>
