<svg width="18" height="21" viewBox="0 0 18 21" fill="none" xmlns="http://www.w3.org/2000/svg">
<path fill-rule="evenodd" clip-rule="evenodd" d="M8.58052 19.8299C8.80831 19.961 9.06634 20.0292 9.32615 20.0292L9.32544 20.0254C9.58836 20.0261 9.84678 19.9573 10.0746 19.8261L17.1821 15.7207C17.6413 15.4538 17.9278 14.9573 17.9278 14.4252V6.22149C17.9276 5.95921 17.8587 5.70155 17.7278 5.47423C17.597 5.2469 17.4089 5.05787 17.1821 4.92598L10.0746 0.818786C9.62796 0.564311 9.03004 0.564311 8.57981 0.818786L1.4634 4.9242C1.0025 5.18757 0.717773 5.68585 0.717773 6.21971V14.4234C0.717956 14.6859 0.786887 14.9438 0.917704 15.1714C1.04852 15.399 1.23666 15.5884 1.4634 15.7207L3.32837 16.7956C4.23238 17.2404 4.55626 17.2404 4.96733 17.2404C6.30377 17.2404 7.07254 16.4308 7.07254 15.0213V6.92085C7.07254 6.80518 6.98 6.7162 6.86789 6.7162H5.96744C5.85177 6.7162 5.76101 6.80518 5.76101 6.92085V15.0178C5.76101 15.6442 5.11503 16.267 4.05798 15.7385L2.11116 14.6138C2.04354 14.5765 2.00083 14.5017 2.00083 14.4234V6.21971C2.00083 6.14141 2.0446 6.06489 2.11347 6.02574L9.21849 1.92566C9.28434 1.88651 9.37153 1.88651 9.43738 1.92566L16.5438 6.02574C16.6111 6.06667 16.6538 6.13963 16.6538 6.22149V14.4252C16.6538 14.5035 16.6111 14.58 16.5452 14.6174L9.43595 18.721C9.37492 18.7566 9.28149 18.7566 9.21564 18.721L7.39232 17.6391C7.33804 17.607 7.26864 17.5964 7.21561 17.6266C6.71111 17.9131 6.61519 17.9505 6.14255 18.116C6.02563 18.1564 5.85266 18.2265 6.20714 18.4247L8.58052 19.8299ZM7.75929 11.7508C7.75929 12.9484 8.41149 14.3763 11.5221 14.3763L11.5118 14.3847C13.7647 14.3847 15.0567 13.4967 15.0567 11.9485C15.0567 10.4127 14.0192 10.0035 11.8339 9.71339C9.62728 9.42154 9.40306 9.27028 9.40306 8.75243C9.40306 8.32534 9.59347 7.75589 11.2289 7.75589C12.6899 7.75589 13.2273 8.07087 13.4497 9.05496C13.4693 9.14749 13.553 9.21511 13.6491 9.21511H14.5726C14.6013 9.21511 14.6296 9.20917 14.6558 9.19767C14.6821 9.18616 14.7056 9.16934 14.725 9.14827C14.7444 9.1272 14.7592 9.10234 14.7685 9.07525C14.7778 9.04816 14.7814 9.01944 14.7791 8.99089C14.6367 7.2932 13.5085 6.50309 11.2324 6.50309C9.20553 6.50309 7.99544 7.35727 7.99544 8.79158C7.99544 10.3487 9.19841 10.7776 11.1452 10.9697C13.4729 11.1975 13.6544 11.5374 13.6544 11.9948C13.6544 12.7893 13.0173 13.1278 11.5189 13.1278C9.63796 13.1278 9.2251 12.6559 9.0863 11.7202C9.07028 11.62 8.98486 11.5461 8.88343 11.5461H7.96518C7.85111 11.5461 7.75929 11.6369 7.75929 11.7508Z" fill="#689F63"/>
</svg>
