<svg width="22" height="21" viewBox="0 0 22 21" fill="none" xmlns="http://www.w3.org/2000/svg">
<path d="M21.6657 9.64454V13.3628H20.047V20.7993H15.191V17.0811H11.9537V20.7993H7.09769C7.09769 17.3522 7.09769 15.6286 7.09769 15.6286C8.1768 14.5441 8.71636 13.1691 8.71636 11.5037H7.09769C7.09769 12.5107 6.77733 13.3822 6.13661 14.1181C5.49589 14.854 4.73715 15.2219 3.86037 15.2219V18.9402H2.24171C1.80332 18.9402 1.41552 18.7659 1.0783 18.4173C0.774796 18.03 0.623047 17.5846 0.623047 17.0811V5.92627C0.623047 4.91924 0.943407 4.04777 1.58413 3.31187C2.22485 2.57596 2.9836 2.20801 3.86037 2.20801H7.09769V0.348877H10.335C11.2118 0.348877 11.9705 0.71683 12.6113 1.45274C13.252 2.18864 13.5723 3.06011 13.5723 4.06714V7.78541C13.5723 8.79243 13.252 9.6639 12.6113 10.3998C11.9705 11.1357 11.2118 11.5037 10.335 11.5037V13.3628C11.6839 13.3628 12.8305 12.8206 13.7747 11.7361C14.7189 10.6516 15.191 9.33468 15.191 7.78541V4.06714H16.8097C17.6864 4.06714 18.4452 4.43509 19.0859 5.171C19.7266 5.90691 20.047 6.77838 20.047 7.78541C20.4854 7.78541 20.8563 7.97906 21.1598 8.36638C21.497 8.71497 21.6657 9.14102 21.6657 9.64454ZM5.47903 9.64454V7.78541H3.86037V9.64454H5.47903Z" fill="#78DCE8"/>
</svg>
