<svg width="22" height="23" viewBox="0 0 22 23" fill="none" xmlns="http://www.w3.org/2000/svg">
<path d="M11.019 0.894701C10.1515 0.898676 9.3229 0.972691 8.59373 1.10179C6.44577 1.48114 6.05581 2.27544 6.05581 3.74003V5.67447H11.1314V6.31921H4.1511C2.6759 6.31921 1.38433 7.20588 0.980364 8.89253C0.514314 10.8258 0.49368 12.0322 0.980364 14.0509C1.34117 15.5535 2.20266 16.6242 3.67786 16.6242H5.42299V14.3053C5.42299 12.63 6.87244 11.1522 8.59373 11.1522H13.6631C15.0745 11.1522 16.201 9.99026 16.201 8.57299V3.74022C16.201 2.3646 15.0406 1.33122 13.6633 1.10179C12.7914 0.956601 11.8867 0.890725 11.019 0.894701ZM8.27419 2.45054C8.79854 2.45054 9.22655 2.88554 9.22655 3.42069C9.22655 3.95375 8.79855 4.38478 8.27438 4.38478C7.74813 4.38478 7.32183 3.95375 7.32183 3.42069C7.32183 2.88554 7.74813 2.45054 8.27419 2.45054Z" fill="url(#paint0_linear_152_29216)"/>
<path d="M16.8329 6.31934V8.57311C16.8329 10.3205 15.3515 11.7912 13.6622 11.7912H8.5926C7.20391 11.7912 6.05469 12.9798 6.05469 14.3704V19.2035C6.05469 20.5789 7.25086 21.388 8.5926 21.7827C10.1992 22.255 11.7399 22.3404 13.662 21.7827C14.9399 21.4126 16.1999 20.6681 16.1999 19.2035V17.2691H11.1303V16.6243H18.7376C20.2128 16.6243 20.7625 15.5953 21.2755 14.051C21.8054 12.4611 21.7829 10.9321 21.2755 8.89265C20.911 7.42427 20.2147 6.31934 18.7376 6.31934H16.8329ZM13.9815 18.5586C14.5078 18.5586 14.9341 18.9898 14.9341 19.5228C14.9341 20.058 14.5078 20.493 13.9815 20.493C13.4572 20.493 13.0294 20.058 13.0294 19.5228C13.0294 18.9898 13.4572 18.5586 13.9815 18.5586Z" fill="url(#paint1_linear_152_29216)"/>
<defs>
<linearGradient id="paint0_linear_152_29216" x1="0.622995" y1="0.894597" x2="12.3266" y2="10.8677" gradientUnits="userSpaceOnUse">
<stop stop-color="#5A9FD4"/>
<stop offset="1" stop-color="#306998"/>
</linearGradient>
<linearGradient id="paint1_linear_152_29216" x1="13.8595" y1="19.3603" x2="9.6607" y2="13.4765" gradientUnits="userSpaceOnUse">
<stop stop-color="#FFD43B"/>
<stop offset="1" stop-color="#FFE873"/>
</linearGradient>
</defs>
</svg>
