<svg width="22" height="19" viewBox="0 0 22 19" fill="none" xmlns="http://www.w3.org/2000/svg">
<path d="M21.6657 9.49168C21.6657 8.09771 19.92 6.77665 17.2435 5.95742C17.8612 3.22951 17.5867 1.0592 16.3771 0.364355C16.0983 0.201367 15.7723 0.124162 15.4163 0.124162V1.08064C15.6137 1.08064 15.7724 1.11925 15.9053 1.19216C16.4886 1.52672 16.7417 2.8006 16.5444 4.43905C16.4972 4.84224 16.42 5.26686 16.3257 5.70007C15.485 5.49419 14.5671 5.33549 13.602 5.23255C13.023 4.43905 12.4225 3.71848 11.8177 3.08797C13.216 1.78836 14.5285 1.07636 15.4206 1.07636V0.119873C14.2411 0.119873 12.697 0.960548 11.1358 2.41886C9.57452 0.969127 8.03042 0.13703 6.8509 0.13703V1.09351C7.73876 1.09351 9.05553 1.80122 10.4538 3.09226C9.85331 3.72277 9.25283 4.43905 8.68237 5.23255C7.71302 5.33549 6.79514 5.49419 5.95447 5.70436C5.85582 5.27544 5.7829 4.85939 5.73143 4.4605C5.52984 2.82204 5.77861 1.54816 6.35765 1.20932C6.48632 1.13211 6.6536 1.0978 6.8509 1.0978V0.141319C6.49061 0.141319 6.16464 0.218524 5.88155 0.381512C4.6763 1.07636 4.40608 3.24238 5.02801 5.96171C2.36016 6.78522 0.623047 8.102 0.623047 9.49168C0.623047 10.8857 2.36873 12.2067 5.04517 13.0259C4.42753 15.7539 4.70204 17.9242 5.91158 18.619C6.19037 18.782 6.51635 18.8592 6.87664 18.8592C8.05616 18.8592 9.60025 18.0185 11.1615 16.5602C12.7228 18.01 14.2669 18.842 15.4464 18.842C15.8067 18.842 16.1326 18.7648 16.4157 18.6019C17.621 17.907 17.8912 15.741 17.2693 13.0217C19.9285 12.2024 21.6657 10.8814 21.6657 9.49168ZM16.0812 6.63082C15.9225 7.18412 15.7252 7.75457 15.5021 8.32503C15.3263 7.9819 15.1418 7.63877 14.9403 7.29563C14.743 6.9525 14.5328 6.61795 14.3226 6.29197C14.9317 6.38204 15.5193 6.49356 16.0812 6.63082ZM14.1167 11.1988C13.7822 11.7778 13.439 12.3268 13.083 12.8372C12.444 12.893 11.7963 12.923 11.1444 12.923C10.4967 12.923 9.84902 12.893 9.21423 12.8415C8.85823 12.3311 8.51081 11.7864 8.17625 11.2116C7.85028 10.6498 7.55433 10.0793 7.28411 9.50455C7.55004 8.9298 7.85028 8.35506 8.17196 7.79318C8.50652 7.21414 8.84965 6.66513 9.20565 6.15472C9.84474 6.09896 10.4924 6.06893 11.1444 6.06893C11.792 6.06893 12.4397 6.09896 13.0745 6.15043C13.4305 6.66084 13.7779 7.20556 14.1124 7.78031C14.4384 8.34219 14.7344 8.91265 15.0046 9.48739C14.7344 10.0621 14.4384 10.6369 14.1167 11.1988ZM15.5021 10.6412C15.7337 11.2159 15.9311 11.7907 16.094 12.3483C15.5322 12.4855 14.9403 12.6013 14.3269 12.6914C14.5371 12.3611 14.7472 12.0223 14.9445 11.6749C15.1418 11.3317 15.3263 10.9843 15.5021 10.6412ZM11.1529 15.2177C10.754 14.806 10.3551 14.347 9.96054 13.8452C10.3466 13.8623 10.7412 13.8752 11.1401 13.8752C11.5432 13.8752 11.9421 13.8666 12.3324 13.8452C11.9464 14.347 11.5475 14.806 11.1529 15.2177ZM7.96179 12.6914C7.35273 12.6013 6.76512 12.4898 6.20324 12.3526C6.36194 11.7993 6.55924 11.2288 6.78228 10.6583C6.95813 11.0015 7.14257 11.3446 7.34416 11.6877C7.54575 12.0309 7.75163 12.3654 7.96179 12.6914ZM11.1315 3.76566C11.5304 4.17742 11.9293 4.63636 12.3239 5.13819C11.9378 5.12103 11.5432 5.10816 11.1444 5.10816C10.7412 5.10816 10.3423 5.11674 9.95196 5.13819C10.338 4.63636 10.7369 4.17742 11.1315 3.76566ZM7.95751 6.29197C7.74734 6.62224 7.53717 6.96108 7.33987 7.3085C7.14257 7.65163 6.95813 7.99477 6.78228 8.3379C6.55066 7.76315 6.35336 7.18841 6.19037 6.63082C6.75225 6.49785 7.34416 6.38204 7.95751 6.29197ZM4.07582 11.662C2.55746 11.0143 1.57524 10.1651 1.57524 9.49168C1.57524 8.81829 2.55746 7.96474 4.07582 7.32137C4.44469 7.16267 4.84787 7.02113 5.26392 6.88816C5.5084 7.72884 5.83008 8.60383 6.22898 9.50026C5.83437 10.3924 5.51698 11.2631 5.27678 12.0995C4.85216 11.9665 4.44898 11.8207 4.07582 11.662ZM6.38339 17.7912C5.80006 17.4566 5.547 16.1828 5.7443 14.5443C5.79148 14.1411 5.86869 13.7165 5.96305 13.2833C6.80372 13.4892 7.7216 13.6479 8.68666 13.7508C9.2657 14.5443 9.86618 15.2649 10.471 15.8954C9.07269 17.195 7.7602 17.907 6.86806 17.907C6.67505 17.9027 6.51206 17.8641 6.38339 17.7912ZM16.5573 14.5229C16.7589 16.1613 16.5101 17.4352 15.931 17.774C15.8024 17.8513 15.6351 17.8856 15.4378 17.8856C14.5499 17.8856 13.2332 17.1779 11.8349 15.8868C12.4354 15.2563 13.0359 14.54 13.6063 13.7465C14.5757 13.6436 15.4936 13.4849 16.3342 13.2747C16.4329 13.7079 16.5101 14.124 16.5573 14.5229ZM18.2086 11.662C17.8397 11.8207 17.4365 11.9622 17.0205 12.0952C16.776 11.2545 16.4543 10.3795 16.0554 9.4831C16.45 8.59096 16.7674 7.72026 17.0076 6.88388C17.4323 7.01684 17.8354 7.16267 18.2129 7.32137C19.7312 7.96903 20.7135 8.81829 20.7135 9.49168C20.7092 10.1651 19.727 11.0186 18.2086 11.662Z" fill="#61DAFB"/>
</svg>
