<svg width="601" height="601" viewBox="0 0 601 601" fill="none" xmlns="http://www.w3.org/2000/svg">
<rect x="0.5" y="0.5" width="600" height="600" stroke="black"/>
<path d="M299.998 152.5H131.125C123.676 152.5 117.751 158.746 118.143 166.185L124.634 289.259C125.096 298.018 123.149 306.737 119.004 314.468L106.998 336.86C89.542 369.419 102.696 409.961 135.942 426.069L375.396 542.09C411.402 559.536 454.743 544.747 472.575 508.929L475.248 503.561C492.505 468.898 479.696 426.792 446.059 407.612L405.32 384.381L343.176 348.945C319.548 335.472 305.529 309.833 306.938 282.67L312.981 166.173C313.367 158.739 307.443 152.5 299.998 152.5Z" fill="#D9D9D9"/>
<mask id="mask0_9_52" style="mask-type:alpha" maskUnits="userSpaceOnUse" x="99" y="152" width="384" height="398">
<path d="M299.998 152.5H131.125C123.676 152.5 117.751 158.746 118.143 166.185L124.634 289.259C125.096 298.018 123.149 306.737 119.004 314.468L106.998 336.86C89.542 369.419 102.696 409.961 135.942 426.069L375.396 542.09C411.402 559.536 454.743 544.747 472.575 508.929L475.248 503.561C492.505 468.898 479.696 426.792 446.059 407.612L405.32 384.381L343.176 348.945C319.548 335.472 305.529 309.833 306.938 282.67L312.981 166.173C313.367 158.739 307.443 152.5 299.998 152.5Z" fill="#D9D9D9"/>
</mask>
<g mask="url(#mask0_9_52)">
<circle cx="525.797" cy="536.249" r="162.332" fill="#0C043F"/>
<circle cx="12.2165" cy="423.126" r="162.332" fill="#E61366"/>
<rect x="59" y="1" width="316" height="239" fill="#BDBDC3"/>
</g>
<path fill-rule="evenodd" clip-rule="evenodd" d="M233.392 187.296L225.096 179L214.392 189.703L222.689 198L233.392 187.296ZM225.096 217L233.392 208.704L222.689 198L214.392 206.297L225.096 217Z" fill="#E61366"/>
<path fill-rule="evenodd" clip-rule="evenodd" d="M195.392 187.296L203.689 179L222.651 197.962L222.651 197.963L222.688 198L203.688 217L195.392 208.703L206.096 198L195.392 187.296Z" fill="#0C043F"/>
<path fill-rule="evenodd" clip-rule="evenodd" d="M170.256 222.615C171.1 223.567 171.106 225.022 170.206 225.922C169.305 226.823 167.839 226.826 166.989 225.878C160.156 218.268 156 208.206 156 197.173C156 186.134 160.161 176.068 166.999 168.455C167.85 167.508 169.315 167.512 170.216 168.412C171.116 169.313 171.11 170.768 170.266 171.72C164.259 178.494 160.611 187.407 160.611 197.173C160.611 206.933 164.255 215.843 170.256 222.615ZM177.651 175.848C176.75 174.947 175.283 174.942 174.449 175.904C169.506 181.602 166.515 189.038 166.515 197.173C166.515 205.302 169.502 212.733 174.438 218.429C175.273 219.392 176.74 219.387 177.641 218.487C178.541 217.587 178.533 216.134 177.711 215.162C173.603 210.308 171.126 204.03 171.126 197.173C171.126 190.311 173.607 184.028 177.72 179.173C178.543 178.201 178.551 176.748 177.651 175.848ZM184.741 182.938C183.848 182.044 182.391 182.031 181.583 183.002C178.353 186.887 176.411 191.88 176.411 197.327C176.411 202.681 178.287 207.596 181.418 211.451C182.221 212.441 183.693 212.435 184.594 211.534C185.494 210.634 185.481 209.183 184.705 208.175C182.395 205.171 181.022 201.41 181.022 197.327C181.022 193.171 182.446 189.347 184.832 186.317C185.626 185.31 185.648 183.845 184.741 182.938Z" fill="#0C043F"/>
<path fill-rule="evenodd" clip-rule="evenodd" d="M259.159 223.28C258.315 224.232 258.309 225.687 259.209 226.587C260.11 227.488 261.575 227.491 262.426 226.544C269.259 218.933 273.415 208.871 273.415 197.838C273.415 186.799 269.254 176.733 262.416 169.12C261.565 168.173 260.1 168.177 259.199 169.077C258.299 169.978 258.305 171.433 259.149 172.385C265.156 179.159 268.804 188.072 268.804 197.838C268.804 207.598 265.16 216.508 259.159 223.28ZM251.764 176.513C252.665 175.612 254.131 175.607 254.966 176.569C259.909 182.267 262.9 189.703 262.9 197.838C262.9 205.967 259.913 213.398 254.977 219.094C254.142 220.057 252.675 220.053 251.774 219.152C250.874 218.252 250.882 216.799 251.704 215.827C255.812 210.973 258.289 204.695 258.289 197.838C258.289 190.976 255.808 184.693 251.695 179.838C250.872 178.866 250.864 177.413 251.764 176.513ZM244.674 183.603C245.567 182.709 247.024 182.696 247.832 183.667C251.061 187.552 253.004 192.545 253.004 197.993C253.004 203.346 251.128 208.261 247.997 212.117C247.194 213.106 245.722 213.1 244.821 212.199C243.921 211.299 243.934 209.848 244.71 208.84C247.02 205.836 248.393 202.075 248.393 197.993C248.393 193.836 246.969 190.012 244.583 186.982C243.789 185.975 243.767 184.51 244.674 183.603Z" fill="#0C043F"/>
</svg>
