<svg width="22" height="27" viewBox="0 0 22 27" fill="none" xmlns="http://www.w3.org/2000/svg">
<path d="M3.66436 1.11763C5.7467 0.569646 8.24003 0.295654 11.1444 0.295654C14.0487 0.295654 16.5146 0.569646 18.5421 1.11763C20.6245 1.61082 21.6657 2.2136 21.6657 2.92598V8.18663C21.6657 8.89901 20.6245 9.52919 18.5421 10.0772C16.5146 10.5704 14.0487 10.817 11.1444 10.817C8.24003 10.817 5.7467 10.5704 3.66436 10.0772C1.63682 9.52919 0.623047 8.89901 0.623047 8.18663V2.92598C0.623047 2.2136 1.63682 1.61082 3.66436 1.11763ZM3.66436 12.7075C5.7467 13.2007 8.24003 13.4473 11.1444 13.4473C14.0487 13.4473 16.5146 13.2007 18.5421 12.7075C20.6245 12.1595 21.6657 11.5293 21.6657 10.817V16.0776C21.6657 16.79 20.6245 17.4202 18.5421 17.9682C16.5146 18.4613 14.0487 18.7079 11.1444 18.7079C8.24003 18.7079 5.7467 18.4613 3.66436 17.9682C1.63682 17.4202 0.623047 16.79 0.623047 16.0776V10.817C0.623047 11.5293 1.63682 12.1595 3.66436 12.7075ZM3.66436 20.5985C5.7467 21.0917 8.24003 21.3383 11.1444 21.3383C14.0487 21.3383 16.5146 21.0917 18.5421 20.5985C20.6245 20.0505 21.6657 19.4203 21.6657 18.7079V23.9686C21.6657 24.681 20.6245 25.3111 18.5421 25.8591C16.5146 26.3523 14.0487 26.5989 11.1444 26.5989C8.24003 26.5989 5.7467 26.3523 3.66436 25.8591C1.63682 25.3111 0.623047 24.681 0.623047 23.9686V18.7079C0.623047 19.4203 1.63682 20.0505 3.66436 20.5985Z" fill="#AB9DF2"/>
</svg>
