<svg xmlns="http://www.w3.org/2000/svg" xmlns:xlink="http://www.w3.org/1999/xlink" viewBox="0 0 486 486.5"><defs><style>.cls-1{fill:url(#Degradado_sin_nombre_31);}.cls-2{fill:#6a6aef;}.cls-3{fill:#e61366;}</style><radialGradient id="Degradado_sin_nombre_31" cx="243" cy="243" r="355.83" gradientTransform="translate(0 -109.44) scale(1 1.45)" gradientUnits="userSpaceOnUse"><stop offset="0" stop-color="#fff"/><stop offset="0.27" stop-color="#f7f7f7"/><stop offset="0.68" stop-color="#e2e2e2"/><stop offset="1" stop-color="#ccc"/></radialGradient></defs><g id="Capa_2" data-name="Capa 2"><g id="Capa_2-2" data-name="Capa 2"><path class="cls-1" d="M0,436.45A49.54,49.54,0,0,0,49.55,486h386.9A49.54,49.54,0,0,0,486,436.45V49.55A49.54,49.54,0,0,0,436.45,0H49.55A49.54,49.54,0,0,0,0,49.55L.24,70.14l29.1,0a7,7,0,0,0,5.39-2.59A21,21,0,0,1,51.48,60,21.19,21.19,0,0,1,51,102.38a21,21,0,0,1-16.24-7.63,6.94,6.94,0,0,0-5.35-2.55l-29.1,0L.24,151l29.1,0a7,7,0,0,0,5.39-2.59,21,21,0,0,1,16.75-7.58A21.19,21.19,0,0,1,51,183.21a21,21,0,0,1-16.24-7.63A6.93,6.93,0,0,0,29.36,173l-29.1,0,0,59,29.1,0a7,7,0,0,0,5.39-2.59,21,21,0,0,1,16.75-7.58A21.19,21.19,0,0,1,51,264.28a21,21,0,0,1-16.24-7.63,6.93,6.93,0,0,0-5.35-2.54l-29.1,0,0,58.73,29.1,0a7,7,0,0,0,5.39-2.6,21,21,0,0,1,16.75-7.57A21.19,21.19,0,0,1,51,345.12a21,21,0,0,1-16.24-7.63A6.93,6.93,0,0,0,29.36,335L.26,335l0,58.28,29.1,0a7,7,0,0,0,5.39-2.6,21,21,0,0,1,16.75-7.57A21.19,21.19,0,0,1,51,425.5a21,21,0,0,1-16.24-7.63,6.9,6.9,0,0,0-5.35-2.54l-29.1,0Z"/><rect class="cls-2" x="127.5" y="61.73" width="358.5" height="2.83"/><rect class="cls-2" x="127.5" y="181.73" width="358.5" height="2.83"/><rect class="cls-2" x="127.5" y="121.73" width="358.5" height="2.83"/><rect class="cls-2" x="127.5" y="241.73" width="358.5" height="2.83"/><rect class="cls-2" x="127.5" y="301.73" width="358.5" height="2.83"/><rect class="cls-2" x="127.5" y="361.73" width="358.5" height="2.83"/><rect class="cls-2" x="127.5" y="421.73" width="358.5" height="2.83"/><rect class="cls-3" x="115.41" width="2.83" height="486"/><rect class="cls-3" x="126.08" y="0.5" width="2.83" height="486"/></g></g></svg>