<svg xmlns="http://www.w3.org/2000/svg" xmlns:xlink="http://www.w3.org/1999/xlink" viewBox="0 0 486 486.5"><defs><style>.cls-1{fill:url(#Degradado_sin_nombre_31);}.cls-2{fill:#6a6aef;}.cls-3{fill:#e61366;}.cls-4{fill:#170c60;}</style><radialGradient id="Degradado_sin_nombre_31" cx="243" cy="243" r="355.83" gradientTransform="translate(0 -109.44) scale(1 1.45)" gradientUnits="userSpaceOnUse"><stop offset="0" stop-color="#fff"/><stop offset="0.27" stop-color="#f7f7f7"/><stop offset="0.68" stop-color="#e2e2e2"/><stop offset="1" stop-color="#ccc"/></radialGradient></defs><g id="Capa_2" data-name="Capa 2"><g id="Capa_2-2" data-name="Capa 2"><path class="cls-1" d="M0,436.45A49.54,49.54,0,0,0,49.55,486h386.9A49.54,49.54,0,0,0,486,436.45V49.55A49.54,49.54,0,0,0,436.45,0H49.55A49.54,49.54,0,0,0,0,49.55L.24,70.14l29.1,0a7,7,0,0,0,5.39-2.59A21,21,0,0,1,51.48,60,21.19,21.19,0,0,1,51,102.38a21,21,0,0,1-16.24-7.63,6.94,6.94,0,0,0-5.35-2.55l-29.1,0L.24,151l29.1,0a7,7,0,0,0,5.39-2.59,21,21,0,0,1,16.75-7.58A21.19,21.19,0,0,1,51,183.21a21,21,0,0,1-16.24-7.63A6.93,6.93,0,0,0,29.36,173l-29.1,0,0,59,29.1,0a7,7,0,0,0,5.39-2.59,21,21,0,0,1,16.75-7.58A21.19,21.19,0,0,1,51,264.28a21,21,0,0,1-16.24-7.63,6.93,6.93,0,0,0-5.35-2.54l-29.1,0,0,58.73,29.1,0a7,7,0,0,0,5.39-2.6,21,21,0,0,1,16.75-7.57A21.19,21.19,0,0,1,51,345.12a21,21,0,0,1-16.24-7.63A6.93,6.93,0,0,0,29.36,335L.26,335l0,58.28,29.1,0a7,7,0,0,0,5.39-2.6,21,21,0,0,1,16.75-7.57A21.19,21.19,0,0,1,51,425.5a21,21,0,0,1-16.24-7.63,6.9,6.9,0,0,0-5.35-2.54l-29.1,0Z"/><rect class="cls-2" x="127.5" y="61.73" width="358.5" height="2.83"/><rect class="cls-2" x="127.5" y="181.73" width="358.5" height="2.83"/><rect class="cls-2" x="127.5" y="121.73" width="358.5" height="2.83"/><rect class="cls-2" x="127.5" y="241.73" width="358.5" height="2.83"/><rect class="cls-2" x="127.5" y="301.73" width="358.5" height="2.83"/><rect class="cls-2" x="127.5" y="361.73" width="358.5" height="2.83"/><rect class="cls-2" x="127.5" y="421.73" width="358.5" height="2.83"/><rect class="cls-3" x="115.41" width="2.83" height="486"/><rect class="cls-3" x="126.08" y="0.5" width="2.83" height="486"/><path class="cls-3" d="M386.09,141.21c-8.08,1.43-15.8,5.26-23.11,8.81-6.34,3.08-12.51,6.53-18.55,10.15a297.21,297.21,0,0,0-45,33.53c-8.44,7.58-17,15.65-23.4,25.09a44.27,44.27,0,0,0-4,42.14c8.74,20.7,30.38,31.3,47.73,43.87,18.09,13.11,36.51,26.2,55.67,37.71,13.54,8.14,33.73,3.46,41.27-10.82,3.7-7,5.56-15.48,3.05-23.24-2.57-7.92-7.21-13.1-13.87-18-15.78-11.68-32.65-21.85-48.59-33.32-7.93-5.7-15.86-11.37-24-16.8-1.75-1.16-3.45-2.37-5.18-3.56-4.37-3,6,5.27.29.13-1.36-1.22-2.5-2.72-3.86-3.91q5,6.79,2.53,3.08a19.5,19.5,0,0,1-1.1-2.13l3.06,7.25a20.2,20.2,0,0,1-1-3.33l1.08,8.07a18.6,18.6,0,0,1-.08-3.5L328,250.46a21.55,21.55,0,0,1,.93-3.7L325.82,254c.39-.88.84-1.72,1.24-2.59,2.14-4.63-3.59,3.63-1.23,1.36,1.94-1.87,3.69-4,5.58-5.89q5.25-5.34,10.8-10.37,5.82-5.27,12-10.16c.78-.62,4.15-3.24.37-.32-4,3.12.22-.13,1.13-.8q3.19-2.36,6.45-4.62a225.91,225.91,0,0,1,39.33-22.21l-7.19,3a46.58,46.58,0,0,1,7.71-2.59c15.26-3.47,25.69-21.9,20.88-36.77-2.35-7.24-6.83-14.21-13.74-17.87-7.48-3.95-14.72-4.48-23-3Z"/><path class="cls-4" d="M199.65,192.38q3.3,1.13,6.52,2.45l-7.07-3c16.46,7.07,31.2,17.73,45.76,28q2,1.4,3.92,2.82c1.95,1.43,6.91,6.16-.36-.35,2.87,2.57,5.94,4.89,8.72,7.58,1.38,1.33,2.72,2.7,4,4.12.64.7,1.26,1.42,1.87,2.15q2.85,3.51-2.06-2.71c1.79,3.25,3.95,6.1,5.44,9.54l-3-7.13a40.86,40.86,0,0,1,2.49,9.16l-1.07-8a32.52,32.52,0,0,1,.06,6.69l1.07-8a39.62,39.62,0,0,1-2.51,9.27l3-7.15a64,64,0,0,1-5.63,10.27c-1.5,2.22-6.25,6.69.19,0-1.38,1.44-2.57,3.12-3.89,4.62a207.81,207.81,0,0,1-15.21,15.35q-2.67,2.43-5.44,4.74c-1.64,1.36-8.57,6-.91.81-3.43,2.32-6.7,4.91-10.09,7.29-9.39,6.58-18.6,13.35-27.58,20.5-5.36,4.27-9,14.49-8.74,21.11a30.76,30.76,0,0,0,6.41,18.08c8.24,10.67,26.57,16.64,38.51,7.69,16.33-12.23,33.91-22.68,49.2-36.3,12.75-11.35,25.94-25.24,33.46-40.64,5-10.23,8.82-21.43,8-33a68.36,68.36,0,0,0-10.36-32.2c-10.29-16.11-25.12-27.71-40.62-38.49-18.42-12.81-36.9-25.26-58.37-32.44-14.69-4.91-33,5.66-36.39,20.66-3.73,16.4,5,31.05,20.66,36.38Z"/></g></g></svg>