<svg width="26" height="25" viewBox="0 0 26 25" fill="none" xmlns="http://www.w3.org/2000/svg">
<path d="M17.2535 15.3092C16.1502 15.3092 15.1543 15.1466 14.2658 14.8214C13.3773 14.4904 12.6166 14.0142 11.9837 13.3929C11.3507 12.7657 10.8658 12.0108 10.529 11.1282C10.198 10.2455 10.0325 9.25541 10.0325 8.15789C10.0325 7.84431 10.0528 7.5075 10.0935 7.14747C10.14 6.78163 10.2009 6.43031 10.2764 6.0935C10.3577 5.7567 10.4477 5.47796 10.5464 5.2573C10.5929 5.15277 10.6219 5.06566 10.6335 4.99598C10.6452 4.9263 10.651 4.86823 10.651 4.82177C10.651 4.70563 10.6074 4.5953 10.5203 4.49077C10.4332 4.38625 10.3084 4.33398 10.1458 4.33398C10.0935 4.33398 10.0209 4.33979 9.928 4.35141C9.84089 4.36302 9.74798 4.38915 9.64926 4.4298C8.62723 4.83629 7.73296 5.44312 6.96643 6.25029C6.20572 7.05746 5.6105 7.99239 5.18079 9.05506C4.75688 10.1119 4.54492 11.2124 4.54492 12.3563C4.54492 13.57 4.75978 14.682 5.1895 15.6925C5.61921 16.7029 6.22024 17.5797 6.99257 18.323C7.7649 19.0663 8.66498 19.6412 9.69281 20.0477C10.7265 20.46 11.8472 20.6661 13.0551 20.6661C13.9377 20.6661 14.7797 20.5413 15.5811 20.2916C16.3825 20.0477 17.12 19.7022 17.7936 19.255C18.473 18.8137 19.0595 18.2998 19.5531 17.7133C20.0467 17.1268 20.4241 16.4938 20.6854 15.8144C20.7319 15.7099 20.7609 15.6141 20.7725 15.527C20.7842 15.434 20.79 15.3644 20.79 15.3179C20.79 15.1611 20.7377 15.0363 20.6332 14.9433C20.5287 14.8446 20.4154 14.7953 20.2935 14.7953C20.1831 14.7953 20.0467 14.8243 19.8841 14.8824C19.5763 14.9869 19.1843 15.0856 18.7082 15.1785C18.2378 15.2656 17.7529 15.3092 17.2535 15.3092Z" fill="black"/>
</svg>