<svg width="26" height="26" viewBox="0 0 26 26" xmlns="http://www.w3.org/2000/svg">
<path d="M13.3721 7.13708C12.6367 7.13708 11.9417 7.28049 11.2871 7.56731C10.6399 7.84679 10.0663 8.23657 9.56618 8.73668C9.06607 9.23678 8.67261 9.81411 8.38578 10.4687C8.10631 11.1159 7.96658 11.8109 7.96658 12.5537C7.96658 13.2965 8.10631 13.9951 8.38578 14.6497C8.67261 15.2969 9.06607 15.8705 9.56618 16.3706C10.0663 16.8707 10.6399 17.2642 11.2871 17.551C11.9417 17.8305 12.6367 17.9702 13.3721 17.9702C14.1076 17.9702 14.8026 17.8305 15.4571 17.551C16.1117 17.2642 16.6853 16.8707 17.1781 16.3706C17.6782 15.8705 18.068 15.2969 18.3474 14.6497C18.6343 13.9951 18.7777 13.2965 18.7777 12.5537C18.7777 11.8109 18.6343 11.1159 18.3474 10.4687C18.068 9.81411 17.6782 9.23678 17.1781 8.73668C16.6853 8.23657 16.1117 7.84679 15.4571 7.56731C14.8026 7.28049 14.1076 7.13708 13.3721 7.13708ZM14.365 2.05145C14.365 1.77933 14.2657 1.54767 14.0671 1.35645C13.8759 1.15788 13.6442 1.05859 13.3721 1.05859C13.1147 1.05859 12.8867 1.15788 12.6882 1.35645C12.4969 1.54767 12.4013 1.77933 12.4013 2.05145V4.21367C12.4013 4.47108 12.4969 4.69906 12.6882 4.89764C12.8867 5.08885 13.1147 5.18446 13.3721 5.18446C13.6442 5.18446 13.8759 5.08885 14.0671 4.89764C14.2657 4.69906 14.365 4.47108 14.365 4.21367V2.05145ZM18.5681 5.97875C18.3842 6.16261 18.2923 6.39427 18.2923 6.67374C18.2923 6.94586 18.3842 7.17753 18.5681 7.36874C18.7593 7.55261 18.991 7.64821 19.2631 7.65557C19.5425 7.65557 19.7779 7.55996 19.9691 7.36874L21.5025 5.8243C21.6864 5.64044 21.7783 5.41245 21.7783 5.14033C21.7783 4.86086 21.6864 4.62552 21.5025 4.4343C21.3113 4.25044 21.0759 4.15851 20.7965 4.15851C20.5244 4.15851 20.2964 4.25044 20.1125 4.4343L18.5681 5.97875ZM23.8633 13.5355C24.1281 13.5355 24.356 13.4399 24.5473 13.2487C24.7458 13.0501 24.8451 12.8184 24.8451 12.5537C24.8451 12.2815 24.7458 12.0499 24.5473 11.8587C24.356 11.6601 24.1281 11.5608 23.8633 11.5608H21.7121C21.4473 11.5608 21.2157 11.6601 21.0171 11.8587C20.8259 12.0499 20.7303 12.2815 20.7303 12.5537C20.7303 12.8184 20.8259 13.0501 21.0171 13.2487C21.2157 13.4399 21.4473 13.5355 21.7121 13.5355H23.8633ZM19.9581 17.7496C19.7669 17.5584 19.5352 17.4628 19.2631 17.4628C18.991 17.4628 18.7593 17.5584 18.5681 17.7496C18.3842 17.9408 18.2923 18.1725 18.2923 18.4446C18.2923 18.7167 18.3842 18.9484 18.5681 19.1396L20.1235 20.673C20.3074 20.8642 20.5354 20.9562 20.8075 20.9488C21.0796 20.9488 21.3113 20.8532 21.5025 20.662C21.6864 20.4781 21.7783 20.2501 21.7783 19.978C21.7783 19.7059 21.6864 19.4742 21.5025 19.283L19.9581 17.7496ZM14.365 20.8936C14.365 20.6362 14.2657 20.4082 14.0671 20.2097C13.8759 20.0185 13.6442 19.9229 13.3721 19.9229C13.1147 19.9229 12.8867 20.0185 12.6882 20.2097C12.4969 20.4082 12.4013 20.6362 12.4013 20.8936V23.0559C12.4013 23.328 12.4969 23.5596 12.6882 23.7509C12.8867 23.9494 13.1147 24.0487 13.3721 24.0487C13.6442 24.0487 13.8759 23.9494 14.0671 23.7509C14.2657 23.5596 14.365 23.328 14.365 23.0559V20.8936ZM5.25277 19.272C5.06891 19.4632 4.9733 19.6949 4.96595 19.967C4.96595 20.2391 5.06155 20.4671 5.25277 20.6509C5.43663 20.8422 5.66462 20.9378 5.93674 20.9378C6.21621 20.9451 6.45155 20.8532 6.64277 20.662L8.17618 19.1506C8.3674 18.9594 8.463 18.7277 8.463 18.4556C8.463 18.1762 8.37107 17.9408 8.18721 17.7496C7.99599 17.5657 7.76065 17.4738 7.48118 17.4738C7.20171 17.4738 6.97372 17.5657 6.79721 17.7496L5.25277 19.272ZM2.90301 11.5608C2.6309 11.5608 2.39555 11.6601 2.19698 11.8587C2.00576 12.0499 1.91016 12.2815 1.91016 12.5537C1.91016 12.8184 2.00576 13.0501 2.19698 13.2487C2.39555 13.4399 2.6309 13.5355 2.90301 13.5355H5.04317C5.30793 13.5355 5.53592 13.4399 5.72713 13.2487C5.92571 13.0501 6.02499 12.8184 6.02499 12.5537C6.02499 12.2815 5.92571 12.0499 5.72713 11.8587C5.53592 11.6601 5.30793 11.5608 5.04317 11.5608H2.90301ZM6.78618 7.36874C6.97004 7.55261 7.19803 7.64454 7.47015 7.64454C7.74962 7.64454 7.98496 7.55261 8.17618 7.36874C8.3674 7.18488 8.463 6.95321 8.463 6.67374C8.463 6.39427 8.37107 6.16261 8.18721 5.97875L6.6538 4.4343C6.46994 4.25044 6.23827 4.15851 5.9588 4.15851C5.68669 4.15851 5.4587 4.25044 5.27483 4.4343C5.08362 4.62552 4.98801 4.86086 4.98801 5.14033C4.98801 5.41245 5.07994 5.64044 5.2638 5.8243L6.78618 7.36874Z" fill="black"/>
</svg>