<svg width="22" height="25" viewBox="0 0 22 25" fill="none" xmlns="http://www.w3.org/2000/svg">
<path fill-rule="evenodd" clip-rule="evenodd" d="M20.2042 5.71275L12.6107 1.20527C11.7044 0.667255 10.5873 0.667255 9.68096 1.20527L2.08753 5.71275C1.18148 6.25076 0.623047 7.24485 0.623047 8.32087V17.3358C0.623047 18.4116 1.18148 19.4062 2.0878 19.9442L9.68122 24.4509C10.1344 24.72 10.6398 24.8542 11.146 24.8542C11.6519 24.8542 12.1573 24.72 12.6105 24.4509L20.2039 19.9442C21.1102 19.4062 21.6689 18.4116 21.6689 17.3358V8.32087C21.6689 7.24485 21.1102 6.25076 20.2042 5.71275Z" fill="#FEFEFE"/>
<path fill-rule="evenodd" clip-rule="evenodd" d="M9.94665 23.9893L2.35322 19.4826C1.61051 19.0417 1.14913 18.2191 1.14913 17.3356V8.32094C1.14913 7.43742 1.61051 6.61489 2.35296 6.17419L9.94665 1.66671C10.3107 1.45061 10.7254 1.33632 11.146 1.33632C11.5663 1.33632 11.981 1.45061 12.3453 1.66671L19.9387 6.17419C20.5645 6.54568 20.9866 7.18896 21.1054 7.91047C20.8535 7.37299 20.2856 7.22688 19.6237 7.61349L12.44 12.0507C11.5442 12.5744 10.8837 13.162 10.8832 14.242V23.0939C10.8827 23.7406 11.1439 24.1596 11.545 24.281C11.4133 24.3038 11.2804 24.3197 11.146 24.3197C10.7254 24.3197 10.3107 24.2054 9.94665 23.9893ZM20.2042 5.71255L12.6107 1.20533C12.1576 0.936195 11.6516 0.801758 11.146 0.801758C10.64 0.801758 10.1341 0.936195 9.68096 1.20533L2.08753 5.71255C1.18148 6.25056 0.623047 7.24491 0.623047 8.32094V17.3356C0.623047 18.4114 1.18148 19.406 2.0878 19.944L9.68122 24.451C10.1347 24.7198 10.64 24.8543 11.146 24.8543C11.6519 24.8543 12.1573 24.7198 12.6105 24.451L20.2042 19.944C21.1105 19.406 21.6689 18.4114 21.6689 17.3356V8.32094C21.6689 7.24491 21.1105 6.25056 20.2042 5.71255Z" fill="#3E474A"/>
<path fill-rule="evenodd" clip-rule="evenodd" d="M18.2125 18.207L16.3216 19.3387C16.2715 19.3678 16.2346 19.4007 16.2344 19.4609V19.9557C16.2344 20.0162 16.2749 20.0414 16.3251 20.0119L18.2451 18.8449C18.2952 18.8158 18.3029 18.7598 18.3032 18.6996V18.2632C18.3032 18.203 18.2626 18.1778 18.2125 18.207Z" fill="#47B353"/>
<path fill-rule="evenodd" clip-rule="evenodd" d="M14.1874 14.0423C14.2486 14.0112 14.299 14.0494 14.2998 14.1295L14.3061 14.7836C14.5801 14.6747 14.8179 14.6455 15.0335 14.6953C15.0802 14.7078 15.1008 14.7714 15.0817 14.847L14.9378 15.4267C14.9266 15.4704 14.902 15.5147 14.8723 15.5423C14.8598 15.5545 14.8471 15.564 14.8344 15.5704C14.815 15.5802 14.7959 15.5834 14.7776 15.5797C14.6792 15.5574 14.4454 15.5062 14.0773 15.6926C13.6912 15.888 13.5563 16.2235 13.5589 16.4725C13.5621 16.7697 13.7146 16.8599 14.2412 16.8689C14.9428 16.8805 15.2459 17.1871 15.2533 17.8937C15.2605 18.5877 14.89 19.3328 14.3234 19.7894L14.3358 20.4369C14.3366 20.5148 14.286 20.6042 14.2247 20.6352L13.8413 20.8561C13.7798 20.8871 13.7294 20.8489 13.7286 20.771L13.722 20.1341C13.3935 20.2706 13.0607 20.3035 12.848 20.2181C12.808 20.2025 12.7908 20.1434 12.8067 20.076L12.9456 19.4905C12.9567 19.4444 12.9811 19.3982 13.0143 19.3688C13.0259 19.3574 13.0381 19.3487 13.0503 19.3426C13.0724 19.3314 13.0938 19.329 13.1121 19.3359C13.3412 19.4131 13.6342 19.377 13.9161 19.2344C14.2741 19.0533 14.5135 18.6881 14.5098 18.3254C14.5063 17.9963 14.3282 17.8595 13.8949 17.8563C13.3433 17.8579 12.8292 17.7492 12.8207 16.9373C12.8138 16.2688 13.1614 15.5733 13.7117 15.1334L13.7048 14.4798C13.704 14.3994 13.753 14.3111 13.8161 14.2793L14.1874 14.0423Z" fill="#FEFEFE"/>
</svg>
